# xmcd
#
# Track frame offsets:
#	150
#	11378
#	31488
#	50075
#	62337
#	79004
#	94968
#	114958
#	130466
#	143612
#	154946
#	175048
#	189898
#	207269
#	234961
#
# Disc length: 3348
#
# Revision: 2
# Processed by: cddbd v1.5.1PL0 Copyright (c) Steve Scherf et al.
# Submitted via: audiograbber 1.81.02
# Normalized: r1:TRMNUM
#
DISCID=ba0d120f
DTITLE=Trio Chapahall`s - Vol. 3
DYEAR=1900
DGENRE=Forró
TTITLE0=Trio Chapahall`s - Introdução
TTITLE1=Trio Chapahall`s - Pra Rebolar
TTITLE2=Trio Chapahall`s - Xote da Alegria
TTITLE3=Trio Chapahall`s - Dormir na Praça
TTITLE4=Trio Chapahall`s - Por Te Amar Assim
TTITLE5=Trio Chapahall`s - Na Base do Cacete
TTITLE6=Trio Chapahall`s - Pedindo Amor
TTITLE7=Trio Chapahall`s - Sapatilha 37
TTITLE8=Trio Chapahall`s - Pau na Raspadinha
TTITLE9=Trio Chapahall`s - Você e Eu
TTITLE10=Trio Chapahall`s - Tão Sós
TTITLE11=Trio Chapahall`s - Sou Apenas Alguém - Raio de Néon
TTITLE12=Trio Chapahall`s - Mais Uma de Amor
TTITLE13=Trio Chapahall`s - Folha de Urtiga
TTITLE14=Trio Chapahall`s - Colo de Menina
EXTD=
EXTT0=
EXTT1=
EXTT2=
EXTT3=
EXTT4=
EXTT5=
EXTT6=
EXTT7=
EXTT8=
EXTT9=
EXTT10=
EXTT11=
EXTT12=
EXTT13=
EXTT14=
PLAYORDER=
